#!OML:ASF I:\Actors\actors\Patient Classification 2\Patient 1\Session 1\actor1.ASF
:FULLY-SPECIFIED
:DEGREES
136
root -0.571157 18.7534 5.1483 1.64469 2.06658 -4.96788
lowerback 11.2891 4.064 0.964469
upperback 0.931382 5.49111 -0.418411
thorax -5.20228 2.6773 -1.82563
lowerneck -8.42623 -6.52685 -4.45569
upperneck 19.3015 -10.2107 9.63654
head 8.08486 -4.31662 2.92294
rclavicle -1.10325e-014 -1.59028e-015
rhumerus -11.5862 25.0741 -69.0046
rradius 87.0714
rwrist -30.3706
rhand -4.27414 -39.297
rfingers 7.12502
rthumb 21.4907 -68.1249
lclavicle -1.10325e-014 -1.59028e-015
lhumerus -46.9395 -3.81171 87.8558
lradius 54.19
lwrist 3.28974
lhand -10.3866 -24.8399
lfingers 7.12502
lthumb 15.6113 4.55016
rfemur 0 0 0
rtibia 0
rfoot 0 0
rtoes 0
lfemur -10.5634 -4.91516 -9.06657
ltibia 25.6993
lfoot -19.8921 9.57539
ltoes -55.9536
137
root -0.562585 18.7543 5.15115 1.61432 2.23249 -5.00692
lowerback 11.5336 4.02049 1.04802
upperback 0.997837 5.44853 -0.352415
thorax -5.26844 2.65377 -1.81341
lowerneck -7.91573 -6.44654 -4.28288
upperneck 18.9412 -10.0708 9.51692
head 7.84545 -4.27619 2.88595
rclavicle 5.65542e-014 1.90833e-014
rhumerus -13.0271 25.856 -68.5084
rradius 90.9537
rwrist -31.5458
rhand -3.96612 -39.3765
rfingers 7.12502
rthumb 21.7865 -68.1703
lclavicle 5.65542e-014 1.90833e-014
lhumerus -47.3182 -3.74225 87.8015
lradius 54.5689
lwrist 3.31157
lhand -10.3966 -24.8936
lfingers 7.12502
lthumb 15.6017 4.49721
rfemur 0 0 0
rtibia 0
rfoot 0 0
rtoes 0
lfemur -10.6291 -5.00098 -9.05005
ltibia 25.7903
lfoot -19.8437 9.54833
ltoes -56.0075
138
root -0.554129 18.7551 5.15211 1.5646 2.37303 -5.04077
lowerback 11.8112 3.95343 1.11535
upperback 1.09683 5.37421 -0.264935
thorax -5.3233 2.61546 -1.76565
lowerneck -7.4684 -6.32962 -4.14197
upperneck 18.6057 -9.88546 9.44107
head 7.62811 -4.20931 2.87128
rclavicle -4.35338e-014 7.15625e-015
rhumerus -14.2185 26.7827 -67.868
rradius 94.7428
rwrist -32.5863
rhand -4.10162 -39.3705
rfingers 7.12502
rthumb 21.6564 -68.1793
lclavicle -4.35338e-014 7.15625e-015
lhumerus -47.7009 -3.73633 87.7929
lradius 55.1773
lwrist 3.81792
lhand -10.2244 -24.4881
lfingers 7.12502
lthumb 15.7676 4.88972
rfemur 0 0 0
rtibia 0
rfoot 0 0
rtoes 0
lfemur -10.679 -4.92247 -9.03502
ltibia 25.8836
lfoot -19.7488 9.39188
ltoes -56.0778
139
root -0.546876 18.7552 5.15106 1.50699 2.50441 -5.05989
lowerback 12.0821 3.86543 1.14797
upperback 1.22695 5.26948 -0.144435
thorax -5.34863 2.56397 -1.65684
lowerneck -7.05522 -6.18447 -4.04212
upperneck 18.3156 -9.65429 9.3421
head 7.43072 -4.12232 2.85881
rclavicle -2.98177e-014 -3.18055e-014
rhumerus -15.1092 27.7919 -67.0789
rradius 98.2874
rwrist -33.4901
rhand -4.51738 -39.4871
rfingers 7.12502
rthumb 21.2571 -68.3415
lclavicle -2.98177e-014 -3.18055e-014
lhumerus -48.0169 -3.63784 87.8188
lradius 55.8596
lwrist 4.37761
lhand -9.93918 -23.6652
lfingers 7.12502
lthumb 16.0422 5.69069
rfemur 0 0 0
rtibia 0
rfoot 0 0
rtoes 0
lfemur -10.7132 -4.7641 -9.02898
ltibia 25.9701
lfoot -19.6522 9.14629
ltoes -56.1804
140
root -0.540922 18.754 5.1475 1.4794 2.60925 -5.08477
lowerback 12.3908 3.76989 1.24317
upperback 1.32038 5.16272 -0.0534231
thorax -5.42474 2.50873 -1.6169
lowerneck -6.67447 -6.03567 -3.83695
upperneck 18.1461 -9.41624 9.10293
head 7.26745 -4.03105 2.78246
rclavicle -1.28216e-014 -1.70955e-014
rhumerus -15.8212 28.7569 -66.3194
rradius 101.547
rwrist -34.3196
rhand -4.41849 -39.873
rfingers 7.12502
rthumb 21.352 -68.7166
lclavicle -1.28216e-014 -1.70955e-014
lhumerus -48.3778 -3.59846 87.826
lradius 56.4287
lwrist 4.5624
lhand -10.1986 -23.1964
lfingers 7.12502
lthumb 15.7924 6.1794
rfemur 0 0 0
rtibia 0
rfoot 0 0
rtoes 0
lfemur -10.7646 -4.67586 -9.01165
ltibia 26.0319
lfoot -19.5946 8.97147
ltoes -56.2463
141
root -0.536327 18.7535 5.14199 1.50332 2.63944 -5.09528
lowerback 12.6787 3.68461 1.36045
upperback 1.38997 5.07015 -0.0170508
thorax -5.50687 2.45929 -1.64717
lowerneck -6.31875 -5.8515 -3.57865
upperneck 18.0191 -9.14912 8.91302
head 7.12226 -3.91558 2.7148
rclavicle -2.65378e-014 -4.37326e-015
rhumerus -16.4505 29.6258 -65.6908
rradius 104.606
rwrist -35.1449
rhand -3.96323 -40.3683
rfingers 7.12502
rthumb 21.7893 -69.1618
lclavicle -2.65378e-014 -4.37326e-015
lhumerus -48.7589 -3.67704 87.7734
lradius 56.9142
lwrist 4.63716
lhand -10.5763 -23.0433
lfingers 7.12502
lthumb 15.4286 6.36087
rfemur 0 0 0
rtibia 0
rfoot 0 0
rtoes 0
lfemur -10.8456 -4.54114 -9.00018
ltibia 26.0619
lfoot -19.5186 8.8331
ltoes -56.2419
142
root -0.531666 18.7546 5.13337 1.51798 2.61815 -5.01698
lowerback 12.9411 3.5846 1.36499
upperback 1.52033 4.94059 0.00327
thorax -5.52002 2.39559 -1.62003
lowerneck -5.97382 -5.62168 -3.35259
upperneck 17.7972 -8.82228 8.80885
head 6.95154 -3.76902 2.68425
rclavicle -2.39536e-014 2.38542e-014
rhumerus -16.7532 30.4886 -65.0059
rradius 107.432
rwrist -36.0261
rhand -3.63239 -40.8396
rfingers 7.12502
rthumb 22.1069 -69.5958
lclavicle -2.39536e-014 2.38542e-014
lhumerus -49.0013 -3.68148 87.6723
lradius 57.3056
lwrist 4.72704
lhand -10.7625 -22.9648
lfingers 7.12502
lthumb 15.2493 6.45316
rfemur 0 0 0
rtibia 0
rfoot 0 0
rtoes 0
lfemur -10.8927 -4.38415 -9.08845
ltibia 26.0695
lfoot -19.4579 8.6857
ltoes -56.184
143
root -0.527807 18.7555 5.12115 1.50436 2.54181 -4.91162
lowerback 13.1768 3.4723 1.31942
upperback 1.71291 4.78664 0.0274332
thorax -5.45762 2.32269 -1.55144
lowerneck -5.53453 -5.38149 -2.95166
upperneck 17.432 -8.4551 8.51313
head 6.70195 -3.61318 2.56811
rclavicle 4.8901e-014 -9.54166e-015
rhumerus -16.6705 31.361 -64.1768
rradius 110.016
rwrist -36.9568
rhand -3.45287 -41.4741
rfingers 7.12502
rthumb 22.2793 -70.2098
lclavicle 4.8901e-014 -9.54166e-015
lhumerus -49.0921 -3.63005 87.5255
lradius 57.5967
lwrist 4.76888
lhand -10.9692 -22.9732
lfingers 7.12502
lthumb 15.0502 6.4598
rfemur 0 0 0
rtibia 0
rfoot 0 0
rtoes 0
lfemur -10.8847 -4.25928 -9.21649
ltibia 26.0541
lfoot -19.4324 8.6158
ltoes -56.1327
144
root -0.526382 18.7551 5.10749 1.49603 2.39869 -4.87519
lowerback 13.3764 3.37809 1.31668
upperback 1.91941 4.66317 0.0700206
thorax -5.35723 2.26471 -1.489
lowerneck -5.04254 -5.17375 -2.51768
upperneck 17.0926 -8.13102 8.18119
head 6.45538 -3.47822 2.43163
rclavicle -3.10104e-014 -2.14687e-014
rhumerus -16.4509 32.1564 -63.2756
rradius 112.437
rwrist -37.85
rhand -3.44414 -42.1234
rfingers 7.12502
rthumb 22.2877 -70.8581
lclavicle -3.10104e-014 -2.14687e-014
lhumerus -49.0894 -3.55997 87.3408
lradius 57.799
lwrist 4.7938
lhand -11.0444 -22.9194
lfingers 7.12502
lthumb 14.9777 6.51895
rfemur 0 0 0
rtibia 0
rfoot 0 0
rtoes 0
lfemur -10.8635 -4.13169 -9.265
ltibia 26.0233
lfoot -19.4015 8.64049
ltoes -56.1325
145
root -0.525664 18.7539 5.0922 1.48412 2.24097 -4.80339
lowerback 13.5904 3.28659 1.24139
upperback 2.14397 4.53436 0.140693
thorax -5.25343 2.2056 -1.35577
lowerneck -4.66932 -4.97174 -2.28329
upperneck 16.9042 -7.82289 7.95478
head 6.29386 -3.34692 2.35579
rclavicle 1.78906e-014 7.95139e-015
rhumerus -16.0271 32.8751 -62.2
rradius 114.684
rwrist -38.6417
rhand -3.53908 -42.7468
rfingers 7.12502
rthumb 22.1965 -71.4924
lclavicle 1.78906e-014 7.95139e-015
lhumerus -49.0289 -3.45232 87.2089
lradius 57.9485
lwrist 4.85657
lhand -10.9581 -22.8697
lfingers 7.12502
lthumb 15.0609 6.56241
rfemur 0 0 0
rtibia 0
rfoot 0 0
rtoes 0
lfemur -10.8376 -4.044 -9.34725
ltibia 26.0003
lfoot -19.386 8.67788
ltoes -56.0974
146
root -0.52438 18.7531 5.07313 1.48244 2.0809 -4.7123
lowerback 13.7987 3.18603 1.16073
upperback 2.38667 4.39219 0.209908
thorax -5.12705 2.14009 -1.2172
lowerneck -4.30582 -4.74645 -1.95967
upperneck 16.6657 -7.46894 7.61317
head 6.11041 -3.19664 2.23098
rclavicle -1.75924e-014 5.56597e-015
rhumerus -15.2998 33.4881 -60.9392
rradius 116.715
rwrist -39.2607
rhand -3.68143 -43.3576
rfingers 7.12502
rthumb 22.0598 -72.1194
lclavicle -1.75924e-014 5.56597e-015
lhumerus -48.9538 -3.44283 87.1382
lradius 58.1391
lwrist 4.98728
lhand -10.8785 -22.9815
lfingers 7.12502
lthumb 15.1375 6.44488
rfemur 0 0 0
rtibia 0
rfoot 0 0
rtoes 0
lfemur -10.835 -3.96555 -9.45355
ltibia 25.9853
lfoot -19.3645 8.72632
ltoes -56.0827
147
root -0.523184 18.753 5.05231 1.49658 1.893 -4.71967
lowerback 13.8738 3.07353 1.12732
upperback 2.70901 4.24179 0.338561
thorax -4.8443 2.07239 -1.02993
lowerneck -3.90603 -4.51462 -1.55095
upperneck 16.2606 -7.09045 7.19772
head 5.86499 -3.03904 2.0709
rclavicle -1.90833e-014 1.15295e-014
rhumerus -14.1907 33.994 -59.4362
rradius 118.535
rwrist -39.7804
rhand -3.72509 -43.8223
rfingers 7.12502
rthumb 22.0179 -72.589
lclavicle -1.90833e-014 1.15295e-014
lhumerus -48.7481 -3.41904 87.1051
lradius 58.3187
lwrist 5.13414
lhand -10.8495 -23.0571
lfingers 7.12502
lthumb 15.1655 6.36714
rfemur 0 0 0
rtibia 0
rfoot 0 0
rtoes 0
lfemur -10.8581 -3.86994 -9.44927
ltibia 25.9697
lfoot -19.3238 8.809
ltoes -56.119
148
root -0.521287 18.7535 5.03213 1.50797 1.66644 -4.70325
lowerback 13.6727 2.92412 0.918589
upperback 3.21723 4.01642 0.554083
thorax -4.2348 1.97378 -0.619638
lowerneck -3.54587 -4.23078 -1.18173
upperneck 15.686 -6.61769 6.71234
head 5.5728 -2.84507 1.90018
rclavicle -2.61402e-014 -3.97569e-016
rhumerus -12.4625 34.4219 -57.5568
rradius 120.2
rwrist -40.4359
rhand -3.55856 -44.3479
rfingers 7.12502
rthumb 22.1778 -73.0957
lclavicle -2.61402e-014 -3.97569e-016
lhumerus -48.2279 -3.10196 87.0812
lradius 58.3917
lwrist 5.19709
lhand -10.9 -22.9903
lfingers 7.12502
lthumb 15.1168 6.43768
rfemur 0 0 0
rtibia 0
rfoot 0 0
rtoes 0
lfemur -10.8681 -3.78568 -9.47113
ltibia 25.9671
lfoot -19.33 8.89451
ltoes -56.0759
149
root -0.518798 18.7528 5.01109 1.47741 1.37134 -4.65977
lowerback 14.2062 2.88244 1.25851
upperback 3.27221 4.00593 0.393262
thorax -4.43201 1.96181 -1.00363
lowerneck -2.77776 -4.11896 -0.703709
upperneck 15.3048 -6.44266 6.54923
head 5.29561 -2.77013 1.80108
rclavicle 3.45885e-014 1.11319e-014
rhumerus -11.9609 34.4329 -56.6575
rradius 121.914
rwrist -41.0977
rhand -3.38677 -44.9918
rfingers 7.12502
rthumb 22.3427 -73.7199
lclavicle 3.45885e-014 1.11319e-014
lhumerus -48.2646 -3.6265 86.8571
lradius 58.4811
lwrist 5.26893
lhand -10.9311 -22.9481
lfingers 7.12502
lthumb 15.0869 6.48215
rfemur 0 0 0
rtibia 0
rfoot 0 0
rtoes 0
lfemur -10.8232 -3.69121 -9.531
ltibia 25.979
lfoot -19.4009 9.01735
ltoes -56.008
150
root -0.519388 18.7517 4.98532 1.45684 1.10676 -4.67095
lowerback 14.4961 2.81877 1.36106
upperback 3.47602 3.93774 0.407694
thorax -4.37026 1.92834 -1.04302
lowerneck -2.14314 -3.96524 -0.480131
upperneck 14.9294 -6.19982 6.45618
head 5.05232 -2.6688 1.7654
rclavicle 1.12313e-014 -2.70347e-014
rhumerus -10.937 34.408 -55.3492
rradius 123.52
rwrist -41.9163
rhand -3.5651 -45.7174
rfingers 7.12502
rthumb 22.1715 -74.4659
lclavicle 1.12313e-014 -2.70347e-014
lhumerus -48.1265 -3.86977 86.7382
lradius 58.5901
lwrist 5.36142
lhand -10.8114 -22.9773
lfingers 7.12502
lthumb 15.2022 6.44423
rfemur 0 0 0
rtibia 0
rfoot 0 0
rtoes 0
lfemur -10.8292 -3.55737 -9.51666
ltibia 25.9908
lfoot -19.4027 9.14418
ltoes -56.0093
151
root -0.524535 18.7526 4.95053 1.56875 1.01918 -4.61722
lowerback 14.4406 2.65224 1.13026
upperback 3.84045 3.68499 0.548488
thorax -3.98671 1.81161 -0.707396
lowerneck -1.71848 -3.72447 -0.29607
upperneck 14.522 -5.82179 6.24173
head 4.82925 -2.50696 1.69991
rclavicle -1.75924e-014 -7.55382e-015
rhumerus -9.05048 34.3041 -53.5081
rradius 124.818
rwrist -42.6381
rhand -4.07732 -46.1973
rfingers 7.12502
rthumb 21.6797 -75.0034
lclavicle -1.75924e-014 -7.55382e-015
lhumerus -47.7895 -3.78326 86.6666
lradius 58.7868
lwrist 5.49617
lhand -10.7334 -23.0477
lfingers 7.12502
lthumb 15.2773 6.36814
rfemur 0 0 0
rtibia 0
rfoot 0 0
rtoes 0
lfemur -11.0675 -3.38131 -9.53548
ltibia 26.0103
lfoot -19.2423 9.11169
ltoes -56.006
